<svg class="svg-icon" style="width: 16px;height: 16px;vertical-align: middle;fill: currentColor;overflow: hidden;" viewBox="0 0 1024 1024" version="1.1" xmlns="http://www.w3.org/2000/svg"><path d="M204.8 395.2v265.6c0 35.2-28.8 64-64 64s-67.2-28.8-67.2-64V395.2c0-35.2 35.2-64 67.2-64 35.2 3.2 64 28.8 64 64zM230.4 752c0 38.4 28.8 67.2 67.2 67.2h44.8V960c0 83.2 124.8 83.2 124.8 0v-140.8h86.4V960c0 83.2 128 83.2 128 0v-140.8h44.8c38.4 0 67.2-28.8 67.2-67.2V344H230.4V752z m566.4-430.4H227.2c0-99.2 57.6-182.4 144-227.2l-44.8-80c-6.4-9.6 9.6-19.2 16-9.6l44.8 80c80-35.2 172.8-32 246.4 0l44.8-80c6.4-9.6 22.4-3.2 16 9.6l-44.8 80c89.6 44.8 147.2 131.2 147.2 227.2z m-390.4-124.8c0-12.8-9.6-22.4-22.4-22.4-12.8 0-22.4 9.6-22.4 22.4 0 12.8 9.6 22.4 22.4 22.4 12.8 0 22.4-9.6 22.4-22.4z m259.2 0c0-12.8-9.6-22.4-22.4-22.4s-22.4 9.6-22.4 22.4c0 12.8 9.6 22.4 22.4 22.4 12.8 0 22.4-9.6 22.4-22.4z m217.6 137.6c-35.2 0-64 28.8-64 64v265.6c0 35.2 28.8 64 64 64s67.2-28.8 67.2-64V398.4c0-38.4-35.2-64-67.2-64z" fill="#888888" /></svg>