<svg class="svg-icon" style="width: 16px;height: 16px;vertical-align: middle;fill: currentColor;overflow: hidden;" viewBox="0 0 1024 1024" version="1.1" xmlns="http://www.w3.org/2000/svg"><path d="M879.4 720c-1.1 3.4-18.9 64.7-62.4 127.8C779.3 902.2 740.3 957 678.7 958c-60.6 1.1-79.9-35.8-149.1-35.8-69 0-90.7 34.9-147.9 36.9-59.2 2.4-104.7-59.4-142.5-113.6-77.4-110.9-136.9-314.3-57.1-450.5 39.3-68.2 110-111.5 186.8-112.8 58-1.1 113.1 39 148.3 39 36.2 0 102.9-48.4 173.2-41.2 29.4 1.2 111.9 12.2 165 88.5-4.1 2.8-98.6 58.1-97.5 170.6C759.4 675 878.1 719.5 879.4 720M644.6 207.1c31.7-38.4 52.6-91.2 47.1-143.6-45.3 1.8-100.6 29.8-133.3 68.1-29 33.3-54.6 86.9-47.4 138.7 50.2 3 102-26.1 133.6-63.2" fill="#666666" /></svg>