<?xml version="1.0" standalone="no"?>
<!DOCTYPE svg PUBLIC "-//W3C//DTD SVG 20010904//EN"
 "http://www.w3.org/TR/2001/REC-SVG-20010904/DTD/svg10.dtd">
<svg version="1.0" xmlns="http://www.w3.org/2000/svg"
 width="24px" height="24px" viewBox="0 0 1280.000000 1280.000000"
 preserveAspectRatio="xMidYMid meet">
<g transform="translate(0.000000,1280.000000) scale(0.100000,-0.100000)"
fill="#000000" stroke="none">
<path d="M6350 12440 c-1228 -58 -2398 -494 -3350 -1249 -437 -346 -868 -789
-1131 -1161 -398 -563 -658 -1081 -852 -1701 -132 -418 -223 -888 -257 -1328
-13 -174 -13 -678 0 -852 34 -435 121 -893 247 -1289 77 -244 115 -344 223
-594 161 -374 316 -663 498 -931 430 -633 823 -1043 1447 -1508 409 -305 802
-517 1375 -742 280 -110 401 -146 765 -230 187 -43 668 -115 900 -135 154 -13
646 -13 840 0 422 29 872 112 1267 235 439 137 893 337 1303 573 479 276 1097
805 1488 1275 472 566 822 1188 1058 1877 39 114 152 510 183 645 43 184 96
511 118 730 20 200 17 905 -5 1105 -86 774 -249 1334 -587 2015 -303 613 -631
1068 -1114 1550 -249 248 -366 351 -611 536 -403 303 -791 527 -1244 715 -538
225 -1300 413 -1831 453 -197 15 -540 20 -730 11z m634 -871 c155 -11 498 -65
672 -104 144 -32 513 -135 629 -175 274 -95 603 -243 841 -380 554 -319 1090
-791 1470 -1295 106 -140 376 -592 498 -835 167 -329 271 -591 346 -865 128
-471 174 -822 174 -1345 0 -421 -14 -556 -104 -1011 -160 -806 -499 -1514
-1049 -2189 -291 -357 -853 -847 -1226 -1069 -391 -232 -853 -430 -1298 -557
-572 -162 -1278 -215 -1867 -138 -381 49 -774 132 -1003 210 -444 152 -904
374 -1207 582 -247 170 -505 380 -719 585 -181 175 -268 268 -395 427 -365
456 -552 777 -790 1358 -222 543 -346 1189 -346 1807 0 1085 368 2172 1030
3045 236 310 653 713 1025 990 625 466 1368 779 2145 904 159 26 404 54 520
59 167 8 528 6 654 -4z"/>
<path d="M6057 9936 c-83 -31 -102 -68 -100 -201 1 -55 6 -147 12 -205 6 -58
16 -166 21 -240 6 -74 16 -198 24 -275 19 -186 32 -338 51 -585 17 -230 25
-321 65 -735 6 -60 15 -173 21 -250 5 -77 14 -185 19 -240 5 -55 14 -149 20
-210 6 -60 17 -195 25 -300 15 -192 26 -324 44 -515 26 -270 42 -464 66 -790
8 -113 20 -241 25 -285 5 -44 14 -132 19 -195 6 -63 15 -169 21 -235 6 -66 15
-181 20 -255 11 -151 24 -305 40 -455 5 -55 15 -161 21 -235 5 -74 13 -138 17
-142 4 -3 138 -8 297 -10 l290 -3 -1 35 c0 19 -6 64 -12 100 -12 67 -23 151
-47 355 -8 66 -19 154 -25 195 -6 41 -15 111 -21 155 -6 44 -14 112 -19 150
-24 183 -24 207 -5 221 15 11 123 14 573 14 362 0 560 -4 573 -10 29 -16 26
-53 -31 -375 -10 -60 -26 -159 -35 -220 -15 -103 -39 -247 -70 -425 -7 -41
-16 -105 -20 -141 l-6 -67 218 -4 c120 -3 223 -1 229 4 6 4 14 32 18 61 6 49
12 83 36 210 10 49 23 142 55 372 7 55 18 126 24 158 24 129 33 177 46 272 16
107 31 206 46 295 5 30 13 84 19 120 16 113 39 253 50 315 17 92 29 170 45
285 27 199 45 315 51 330 6 16 25 135 49 310 16 116 28 195 45 285 6 33 17
103 25 155 8 52 19 122 25 155 5 33 14 92 20 130 7 39 16 95 21 125 5 30 16
102 24 160 18 128 21 148 46 280 10 58 24 141 29 185 21 168 44 315 71 455 21
115 41 268 46 362 6 116 -8 169 -67 251 -68 95 -91 105 -645 297 -60 21 -193
68 -295 105 -326 117 -721 257 -945 335 -60 21 -162 57 -225 80 -63 24 -171
62 -240 86 -69 25 -181 64 -250 88 -69 25 -170 60 -225 80 -123 43 -169 50
-218 32z m1017 -952 c14 -13 16 -48 16 -225 0 -126 -4 -218 -10 -230 -10 -18
-23 -19 -231 -19 -133 0 -228 4 -240 10 -18 10 -19 23 -19 230 0 185 2 221 16
234 13 14 49 16 234 16 185 0 221 -2 234 -16z m904 -226 c9 -9 12 -75 12 -235
0 -210 -1 -223 -19 -233 -12 -6 -106 -10 -235 -10 -182 0 -217 2 -230 16 -14
13 -16 48 -16 225 0 126 4 218 10 230 10 18 24 19 238 19 164 0 231 -3 240
-12z m793 -218 c18 -10 19 -23 19 -230 0 -120 -3 -225 -6 -234 -5 -14 -36 -16
-235 -16 -215 0 -229 1 -239 19 -6 12 -10 104 -10 230 0 177 2 212 16 225 13
14 48 16 225 16 126 0 218 -4 230 -10z m-793 -852 c17 -17 17 -449 0 -466 -9
-9 -76 -12 -240 -12 -214 0 -228 1 -238 19 -6 12 -10 103 -10 226 0 123 4 214
10 226 10 18 24 19 238 19 164 0 231 -3 240 -12z m-908 -538 c19 -19 20 -33
20 -234 0 -182 -2 -217 -16 -230 -23 -24 -445 -24 -468 0 -14 13 -16 48 -16
232 0 119 4 222 8 228 13 20 36 22 245 23 194 1 208 0 227 -19z m1030 -610
c13 -8 15 -45 15 -235 0 -213 -1 -227 -19 -241 -16 -11 -63 -14 -217 -14 -109
0 -209 4 -223 10 l-26 10 0 228 c0 164 3 231 12 240 15 15 435 17 458 2z
m-522 -942 c9 -9 12 -76 12 -240 0 -214 -1 -228 -19 -238 -25 -13 -430 -13
-451 0 -21 13 -22 448 -1 473 12 15 41 17 230 17 155 0 220 -3 229 -12z"/>
<path d="M5530 9753 c-25 -15 -117 -81 -205 -147 -88 -67 -170 -128 -181 -136
-12 -8 -74 -55 -139 -105 -64 -49 -142 -108 -173 -130 -76 -53 -196 -173 -220
-221 -73 -146 -88 -271 -53 -450 11 -55 24 -135 30 -179 20 -159 40 -297 46
-316 6 -18 25 -19 566 -19 534 0 560 -1 578 -19 21 -21 23 -65 42 -1236 5
-324 14 -774 19 -1000 5 -225 14 -666 19 -980 6 -313 13 -680 17 -813 7 -235
8 -244 28 -252 267 -106 381 -150 392 -150 10 0 13 7 9 23 -3 12 -10 74 -15
137 -17 188 -40 454 -54 630 -8 91 -16 172 -19 180 -4 8 -11 76 -17 150 -5 74
-15 178 -20 230 -5 52 -17 183 -25 290 -15 193 -27 315 -45 460 -5 41 -16 165
-25 275 -9 110 -20 243 -25 295 -5 52 -14 147 -20 210 -6 63 -15 153 -20 200
-6 47 -15 139 -20 205 -17 216 -29 348 -45 490 -8 77 -20 196 -25 265 -28 334
-41 483 -50 565 -23 213 -42 412 -60 645 -10 133 -26 297 -50 520 -6 47 -14
134 -20 193 -6 60 -17 124 -24 141 -32 78 -114 98 -196 49z"/>
<path d="M3575 7858 c-48 -17 -93 -55 -122 -106 -25 -43 -28 -55 -27 -137 1
-49 13 -153 28 -230 14 -77 32 -189 41 -250 14 -96 55 -358 85 -540 6 -33 14
-91 20 -130 5 -38 14 -95 19 -125 20 -109 32 -187 46 -290 19 -144 33 -231 46
-287 9 -45 20 -111 54 -358 14 -94 25 -162 45 -280 5 -27 21 -126 35 -220 15
-93 31 -195 36 -225 14 -78 25 -148 43 -280 9 -63 21 -137 26 -165 17 -86 28
-154 54 -340 34 -239 57 -358 70 -367 6 -4 367 -8 801 -8 435 0 795 4 801 8
12 7 4 682 -16 1462 -6 217 -15 665 -20 995 -11 654 -27 1440 -36 1713 l-6
172 -997 -1 c-667 0 -1006 -4 -1026 -11z m769 -608 l26 -10 0 -228 c0 -164 -3
-231 -12 -240 -17 -17 -449 -17 -466 0 -13 13 -17 444 -4 464 4 6 14 14 22 17
26 10 407 7 434 -3z m740 -260 l26 -10 0 -229 c0 -217 -1 -231 -19 -241 -12
-6 -103 -10 -226 -10 -123 0 -214 4 -226 10 -18 10 -19 24 -19 241 0 229 0
230 23 239 30 12 409 12 441 0z m-553 -760 c18 -10 19 -24 19 -239 0 -199 -2
-230 -16 -235 -31 -12 -449 -7 -462 6 -9 9 -12 75 -12 235 0 201 2 223 18 232
23 14 427 14 453 1z m463 -712 c13 -19 16 -58 16 -228 0 -170 -3 -209 -16
-228 -15 -22 -19 -22 -234 -22 -185 0 -221 2 -234 16 -14 13 -16 49 -16 234 0
185 2 221 16 234 13 14 49 16 234 16 215 0 219 0 234 -22z m37 -728 c18 -10
19 -24 19 -239 0 -199 -2 -230 -16 -235 -31 -12 -449 -7 -462 6 -9 9 -12 75
-12 235 0 201 2 223 18 232 23 14 427 14 453 1z"/>
<path d="M3183 7637 c-25 -14 -64 -59 -144 -167 -241 -325 -274 -383 -303
-522 -31 -152 -20 -277 47 -538 14 -52 44 -176 67 -275 46 -197 111 -467 160
-670 18 -71 43 -177 55 -235 13 -58 41 -181 64 -275 77 -314 90 -369 136 -560
56 -235 62 -259 74 -315 12 -60 80 -322 83 -324 2 -1 44 -16 93 -33 50 -17
140 -50 200 -73 149 -57 155 -58 155 -29 0 31 -15 140 -50 369 -16 102 -34
221 -40 265 -14 112 -36 266 -60 430 -12 77 -28 187 -35 245 -8 58 -20 143
-28 190 -15 84 -20 120 -52 370 -9 69 -20 148 -25 175 -5 28 -14 79 -19 115
-6 36 -15 92 -20 125 -6 33 -13 89 -16 125 -6 66 -9 83 -45 310 -10 69 -22
148 -25 175 -3 28 -10 77 -15 110 -5 33 -17 112 -25 175 -15 109 -22 158 -45
303 -5 34 -12 85 -15 112 -14 125 -52 346 -65 381 -19 50 -61 66 -107 41z"/>
<path d="M9166 7143 c-3 -10 -14 -79 -26 -153 -11 -74 -25 -160 -30 -190 -22
-124 -55 -326 -84 -510 -8 -52 -21 -129 -30 -170 -14 -74 -20 -110 -51 -320
-9 -58 -20 -127 -26 -155 -21 -109 -29 -154 -44 -255 -9 -58 -30 -186 -46
-285 -40 -236 -46 -272 -63 -385 -8 -52 -19 -120 -26 -150 -11 -56 -20 -113
-45 -280 -8 -52 -24 -144 -35 -205 -12 -60 -27 -153 -35 -205 -7 -52 -19 -131
-26 -175 -7 -44 -13 -96 -13 -115 l-1 -35 521 -3 c423 -2 523 0 532 11 12 14
38 84 107 292 24 72 66 195 94 275 173 505 206 603 229 670 13 41 35 107 49
145 13 39 42 122 63 185 21 63 77 228 125 365 48 138 106 309 130 380 24 72
82 243 129 380 93 272 100 311 67 388 -25 57 -83 123 -132 148 -21 10 -100 35
-174 54 -75 19 -141 37 -146 41 -5 3 -64 19 -132 35 -67 16 -149 38 -182 49
-63 20 -274 77 -410 111 -44 11 -121 33 -172 50 -108 34 -110 34 -117 12z
m652 -435 c17 -17 17 -459 0 -476 -15 -15 -435 -17 -458 -2 -13 8 -15 46 -15
240 0 194 2 232 15 240 23 15 443 13 458 -2z m166 -894 c10 -26 7 -462 -3
-469 -5 -3 -109 -6 -230 -6 -162 -1 -225 2 -236 11 -12 10 -15 51 -15 234 0
159 3 225 12 234 9 9 76 12 239 12 198 0 228 -2 233 -16z m-225 -808 c8 -9 11
-81 9 -237 l-3 -224 -240 0 -240 0 -3 225 c-1 123 0 230 2 237 8 20 459 19
475 -1z"/>
</g>
</svg>
