<svg class="svg-icon" style="width: 24px; height: 24px;vertical-align: middle;fill: currentColor;overflow: hidden;" viewBox="0 0 1024 1024" version="1.1" xmlns="http://www.w3.org/2000/svg"><path d="M512 853.333333C700.586667 853.333333 853.333333 700.586667 853.333333 512 853.333333 323.413333 700.586667 170.666667 512 170.666667 323.413333 170.666667 170.666667 323.413333 170.666667 512 170.666667 700.586667 323.413333 853.333333 512 853.333333M512 85.333333C747.52 85.333333 938.666667 276.48 938.666667 512 938.666667 747.52 747.52 938.666667 512 938.666667 276.053333 938.666667 85.333333 746.666667 85.333333 512 85.333333 276.48 276.48 85.333333 512 85.333333M533.333333 298.666667 533.333333 522.666667 725.333333 636.586667 693.333333 689.066667 469.333333 554.666667 469.333333 298.666667 533.333333 298.666667Z"  /></svg>