<svg class="svg-icon" style="width: 24px;height: 24px;vertical-align: middle;fill: currentColor;overflow: hidden;" viewBox="0 0 1024 1024" version="1.1" xmlns="http://www.w3.org/2000/svg"><path d="M15.4 367c0 163.5 132.6 296.1 296.1 296.1 163.5 0 296.1-132.6 296.1-296.1S475.1 70.9 311.6 70.9C148 70.9 15.4 203.5 15.4 367z m0 0" fill="#E9EAEB" /><path d="M866.3 248.9c20.3-0.6 39.9 7 54.5 21.1 14.6 14 22.9 33.4 23.1 53.6V809H96V323.7c0-42.7 26.5-74.7 70.4-74.7h699.9z m0 0" fill="#FFFFFF" /><path d="M960 825.4H79.7V323.7c0-53.5 35.6-90.8 86.5-90.8h700.2c24.5-0.7 48.3 8.6 65.9 25.7 17.6 17.1 27.6 40.5 27.7 65.1v501.7z m-848.3-32.3H928V323.7c-0.1-16.1-6.7-31.4-18.3-42.5-11.7-11.2-27.3-17.2-43.4-16.6H166.2c-33.1 0-54.5 23-54.5 59.1v469.4z m0 0" fill="#2A5082" /><path d="M15.7 809h992.2v26.6c0 56-45.4 101.5-101.5 101.5H127.8c-29.7 0-58.3-11.8-79.3-32.9-21-21-32.9-49.6-32.9-79.3V809z m0 0" fill="#FFFFFF" /><path d="M906.5 953.1H117.1C54.5 953.1 0 893.2 0 824.9v-31.8h1023.9v31.8c0 68.3-54.8 128.2-117.4 128.2zM31.7 825.4c0 45.3 36.9 96 85.4 96h789.4c48.8 0 85.4-50.7 85.4-96H31.7z m0 0" fill="#2A5082" /><path d="M447.8 857.1h176v32h-176v-32zM863.9 489h32v272h-32V489zM175.7 761h-32V296.9h304.1v32H175.7V761z m0 0" fill="#2A5082" /><path d="M1007.9 136.9v256.9c0 26.1-21.1 47.2-47.2 47.2H701.5l-97.1 123.7c-4.3 5.2-11.3 7.2-17.7 5-6.4-2.2-10.6-8.2-10.8-14.9V441h-31.8c-26.6-0.1-48.2-21.7-48.3-48.3V136.9c0-12.7 5.1-24.9 14.1-33.9s21.2-14.1 33.9-14.1h416c26.7 0.1 48.1 21.5 48.1 48z m0 0" fill="#A3D4FF" /><path d="M592 586.9c-3.6 0-7.3-0.6-10.7-1.8-13-4.4-21.7-16.6-21.6-30.3V457H544c-35.4-0.2-64-28.9-64.1-64.2V136.9c0-35.3 28.7-64 64-64h416c35.3 0 64 28.7 64 64v256.9c0 34.9-28.3 63.2-63.2 63.2h-251L617 574.3c-5.9 7.9-15.2 12.5-25 12.6z m-48.2-482c-17.6 0-31.9 14.3-32 32v255.9c0 17.8 14.5 32.2 32.3 32.3h47.7v129.8L694.1 425h266.6c17.2 0 31.1-14 31.2-31.2V136.9c0-17.6-14.3-32-31.9-32H543.8z m0 0" fill="#2A5082" /><path d="M671.8 248.9h32v32h-32v-32z m64.1 0h32v32h-32v-32z m64 0h32v32h-32v-32z m0 0" fill="#2A5082" /><path d="M367.7 585c-34.5 0-144.1 33.4-144.1 76.4V761h288v-99.6c0.2-42.8-109.4-76.4-143.9-76.4z m0 0" fill="#E9EAEB" /><path d="M527.8 761h-32v-99.6c0-26.9-92.8-60.5-128-60.5s-128 33.7-128 60.5V761h-32v-99.6c0-59.1 125.5-92.5 160-92.5s160 33.7 160 92.5V761z m0 0" fill="#2A5082" /><path d="M447.8 465c0-39.8-32.2-72-72-72s-72 32.2-72 72v48c0 39.8 32.2 72 72 72s72-32.2 72-72v-48z m0 0" fill="#FFFFFF" /><path d="M375.7 601c-48.5-0.2-87.7-39.5-87.7-88v-48c0-48.6 39.4-88 88-88s88 39.4 88 88v48c0 23.4-9.3 45.8-25.9 62.3-16.5 16.5-39 25.8-62.4 25.7z m0-192c-30.9 0-55.9 25.1-56 56v48c1.1 30.1 25.9 54 56 54 30.2 0 54.9-23.9 56-54v-48c0.1-31-25-56-56-56z m0 0" fill="#2A5082" /></svg>