 <svg xmlns="http://www.w3.org/2000/svg" viewBox="0 0 24 24" width="24" height="24" class="gift-svg">
                                    <path fill="none" d="M0 0h24v24H0V0z"/>
                                    <path fill="none" d="M0 0h24v24H0V0z"/>
                                    <path fill="none" d="M0 0h24v24H0V0z"/>
                                    <path fill="none" d="M18 2H6a2 2 0 00-2 2v16a2 2 0 002 2h12a2 2 0 002-2V4a2 2 0 00-2-2zm0 18H6V8h12v12z" stroke="#000" stroke-width="2"/>
                                    <path fill="none" d="M0 0h24v24H0V0z"/>
                                  </svg>