<svg class="svg-icon" style="width: 24px; height: 24px;vertical-align: middle;fill: red;overflow: hidden;" viewBox="0 0 1024 1024" version="1.1" xmlns="http://www.w3.org/2000/svg"><path d="M518.4 89.6c19.2 108.8 83.2 160 140.8 204.8 70.4 57.6 140.8 115.2 166.4 288 6.4 108.8-19.2 211.2-89.6 281.6-51.2 64-128 96-224 96-211.2 0-384-172.8-384-384 0-38.4 6.4-70.4 19.2-108.8 19.2 102.4 64 211.2 160 230.4H320c44.8 0 64-19.2 76.8-38.4 19.2-38.4 0-76.8-25.6-108.8-19.2-25.6-44.8-64-51.2-115.2-25.6-160 38.4-268.8 198.4-345.6M576 0C384 64 217.6 179.2 256 448c19.2 128 128 192 64 192-140.8-32-128-384-128-384-64 64-128 192-128 320 0 249.6 198.4 448 448 448s403.2-198.4 384-448c-64-384-326.4-288-320-576z"  /></svg>